<mxfile host="app.diagrams.net" agent="Mozilla/5.0 (Windows NT 10.0; Win64; x64) AppleWebKit/537.36 (KHTML, like Gecko) Chrome/129.0.0.0 Safari/537.36" version="24.7.17">
  <diagram name="Página-1" id="o5d4DbVt-xcLEBsC3OUb">
    <mxGraphModel dx="504" dy="261" grid="1" gridSize="10" guides="1" tooltips="1" connect="1" arrows="1" fold="1" page="1" pageScale="1" pageWidth="1200" pageHeight="1920" math="0" shadow="0">
      <root>
        <mxCell id="0" />
        <mxCell id="1" parent="0" />
        <mxCell id="2eBFDwB-1l00EKEGbf3b-24" value="" style="html=1;whiteSpace=wrap;" vertex="1" parent="1">
          <mxGeometry x="90" y="180" width="510" height="370" as="geometry" />
        </mxCell>
        <mxCell id="2eBFDwB-1l00EKEGbf3b-25" value="Frontend" style="text;align=center;fontStyle=1;verticalAlign=middle;spacingLeft=3;spacingRight=3;strokeColor=none;rotatable=0;points=[[0,0.5],[1,0.5]];portConstraint=eastwest;html=1;" vertex="1" parent="1">
          <mxGeometry x="305" y="190" width="80" height="26" as="geometry" />
        </mxCell>
        <mxCell id="2eBFDwB-1l00EKEGbf3b-26" value="" style="html=1;whiteSpace=wrap;" vertex="1" parent="1">
          <mxGeometry x="710" y="660" width="440" height="270" as="geometry" />
        </mxCell>
        <mxCell id="2eBFDwB-1l00EKEGbf3b-27" value="Backend" style="text;align=center;fontStyle=1;verticalAlign=middle;spacingLeft=3;spacingRight=3;strokeColor=none;rotatable=0;points=[[0,0.5],[1,0.5]];portConstraint=eastwest;html=1;" vertex="1" parent="1">
          <mxGeometry x="880" y="670" width="80" height="26" as="geometry" />
        </mxCell>
        <mxCell id="2eBFDwB-1l00EKEGbf3b-31" value="«Annotation»&lt;br&gt;&lt;b&gt;Cloudfront&lt;/b&gt;" style="html=1;dropTarget=0;whiteSpace=wrap;" vertex="1" parent="1">
          <mxGeometry x="360" y="250" width="180" height="90" as="geometry" />
        </mxCell>
        <mxCell id="2eBFDwB-1l00EKEGbf3b-32" value="" style="shape=module;jettyWidth=8;jettyHeight=4;" vertex="1" parent="2eBFDwB-1l00EKEGbf3b-31">
          <mxGeometry x="1" width="20" height="20" relative="1" as="geometry">
            <mxPoint x="-27" y="7" as="offset" />
          </mxGeometry>
        </mxCell>
        <mxCell id="2eBFDwB-1l00EKEGbf3b-33" value="«Annotation»&lt;br&gt;&lt;b&gt;Bucket S3&lt;/b&gt;" style="html=1;dropTarget=0;whiteSpace=wrap;" vertex="1" parent="1">
          <mxGeometry x="360" y="390" width="180" height="90" as="geometry" />
        </mxCell>
        <mxCell id="2eBFDwB-1l00EKEGbf3b-34" value="" style="shape=module;jettyWidth=8;jettyHeight=4;" vertex="1" parent="2eBFDwB-1l00EKEGbf3b-33">
          <mxGeometry x="1" width="20" height="20" relative="1" as="geometry">
            <mxPoint x="-27" y="7" as="offset" />
          </mxGeometry>
        </mxCell>
        <mxCell id="2eBFDwB-1l00EKEGbf3b-35" value="&lt;b&gt;API Gateway&lt;/b&gt;" style="html=1;dropTarget=0;whiteSpace=wrap;" vertex="1" parent="1">
          <mxGeometry x="255" y="690" width="180" height="90" as="geometry" />
        </mxCell>
        <mxCell id="2eBFDwB-1l00EKEGbf3b-36" value="" style="shape=module;jettyWidth=8;jettyHeight=4;" vertex="1" parent="2eBFDwB-1l00EKEGbf3b-35">
          <mxGeometry x="1" width="20" height="20" relative="1" as="geometry">
            <mxPoint x="-27" y="7" as="offset" />
          </mxGeometry>
        </mxCell>
        <mxCell id="2eBFDwB-1l00EKEGbf3b-38" value="" style="ellipse;whiteSpace=wrap;html=1;align=center;aspect=fixed;fillColor=none;strokeColor=none;resizable=0;perimeter=centerPerimeter;rotatable=0;allowArrows=0;points=[];outlineConnect=1;" vertex="1" parent="1">
          <mxGeometry x="480" y="700" width="10" height="10" as="geometry" />
        </mxCell>
        <mxCell id="2eBFDwB-1l00EKEGbf3b-40" value="" style="ellipse;whiteSpace=wrap;html=1;align=center;aspect=fixed;fillColor=none;strokeColor=none;resizable=0;perimeter=centerPerimeter;rotatable=0;allowArrows=0;points=[];outlineConnect=1;" vertex="1" parent="1">
          <mxGeometry x="400" y="660" width="10" height="10" as="geometry" />
        </mxCell>
        <mxCell id="2eBFDwB-1l00EKEGbf3b-41" value="" style="rounded=0;orthogonalLoop=1;jettySize=auto;html=1;endArrow=halfCircle;endFill=0;endSize=6;strokeWidth=1;sketch=0;exitX=0.5;exitY=0;exitDx=0;exitDy=0;" edge="1" parent="1" source="2eBFDwB-1l00EKEGbf3b-35">
          <mxGeometry relative="1" as="geometry">
            <mxPoint x="430" y="635" as="sourcePoint" />
            <mxPoint x="345" y="620" as="targetPoint" />
          </mxGeometry>
        </mxCell>
        <mxCell id="2eBFDwB-1l00EKEGbf3b-42" value="" style="rounded=0;orthogonalLoop=1;jettySize=auto;html=1;endArrow=oval;endFill=0;sketch=0;sourcePerimeterSpacing=0;targetPerimeterSpacing=0;endSize=10;exitX=0.5;exitY=1;exitDx=0;exitDy=0;" edge="1" parent="1" source="2eBFDwB-1l00EKEGbf3b-24">
          <mxGeometry relative="1" as="geometry">
            <mxPoint x="390" y="635" as="sourcePoint" />
            <mxPoint x="345" y="620" as="targetPoint" />
          </mxGeometry>
        </mxCell>
        <mxCell id="2eBFDwB-1l00EKEGbf3b-43" value="" style="ellipse;whiteSpace=wrap;html=1;align=center;aspect=fixed;fillColor=none;strokeColor=none;resizable=0;perimeter=centerPerimeter;rotatable=0;allowArrows=0;points=[];outlineConnect=1;" vertex="1" parent="1">
          <mxGeometry x="405" y="630" width="10" height="10" as="geometry" />
        </mxCell>
        <mxCell id="2eBFDwB-1l00EKEGbf3b-44" value="&lt;b&gt;AuthService&lt;/b&gt;" style="html=1;dropTarget=0;whiteSpace=wrap;" vertex="1" parent="1">
          <mxGeometry x="190" y="860" width="130" height="60" as="geometry" />
        </mxCell>
        <mxCell id="2eBFDwB-1l00EKEGbf3b-45" value="" style="shape=module;jettyWidth=8;jettyHeight=4;" vertex="1" parent="2eBFDwB-1l00EKEGbf3b-44">
          <mxGeometry x="1" width="11" height="10" relative="1" as="geometry">
            <mxPoint x="-18" y="7" as="offset" />
          </mxGeometry>
        </mxCell>
        <mxCell id="2eBFDwB-1l00EKEGbf3b-46" value="&lt;b&gt;CustomAuthorizer&lt;/b&gt;" style="html=1;dropTarget=0;whiteSpace=wrap;" vertex="1" parent="1">
          <mxGeometry x="380" y="860" width="130" height="60" as="geometry" />
        </mxCell>
        <mxCell id="2eBFDwB-1l00EKEGbf3b-47" value="" style="shape=module;jettyWidth=8;jettyHeight=4;" vertex="1" parent="2eBFDwB-1l00EKEGbf3b-46">
          <mxGeometry x="1" width="11" height="10" relative="1" as="geometry">
            <mxPoint x="-18" y="7" as="offset" />
          </mxGeometry>
        </mxCell>
        <mxCell id="2eBFDwB-1l00EKEGbf3b-49" value="" style="rounded=0;orthogonalLoop=1;jettySize=auto;html=1;endArrow=halfCircle;endFill=0;endSize=6;strokeWidth=1;sketch=0;exitX=0.5;exitY=0;exitDx=0;exitDy=0;" edge="1" target="2eBFDwB-1l00EKEGbf3b-51" parent="1" source="2eBFDwB-1l00EKEGbf3b-44">
          <mxGeometry relative="1" as="geometry">
            <mxPoint x="280" y="845" as="sourcePoint" />
          </mxGeometry>
        </mxCell>
        <mxCell id="2eBFDwB-1l00EKEGbf3b-50" value="" style="rounded=0;orthogonalLoop=1;jettySize=auto;html=1;endArrow=oval;endFill=0;sketch=0;sourcePerimeterSpacing=0;targetPerimeterSpacing=0;endSize=10;exitX=0.5;exitY=1;exitDx=0;exitDy=0;" edge="1" target="2eBFDwB-1l00EKEGbf3b-51" parent="1" source="2eBFDwB-1l00EKEGbf3b-35">
          <mxGeometry relative="1" as="geometry">
            <mxPoint x="240" y="845" as="sourcePoint" />
          </mxGeometry>
        </mxCell>
        <mxCell id="2eBFDwB-1l00EKEGbf3b-51" value="" style="ellipse;whiteSpace=wrap;html=1;align=center;aspect=fixed;fillColor=none;strokeColor=none;resizable=0;perimeter=centerPerimeter;rotatable=0;allowArrows=0;points=[];outlineConnect=1;" vertex="1" parent="1">
          <mxGeometry x="255" y="840" width="10" height="10" as="geometry" />
        </mxCell>
      </root>
    </mxGraphModel>
  </diagram>
</mxfile>
